<?xml version="1.0" standalone="no"?>
<!DOCTYPE svg PUBLIC "-//W3C//DTD SVG 20010904//EN"
 "http://www.w3.org/TR/2001/REC-SVG-20010904/DTD/svg10.dtd">
<svg version="1.0" xmlns="http://www.w3.org/2000/svg"
 width="420.000000pt" height="420.000000pt" viewBox="0 0 420.000000 420.000000"
 preserveAspectRatio="xMidYMid meet">

<g transform="translate(0.000000,420.000000) scale(0.100000,-0.100000)"
fill="#000000" stroke="none">
<path d="M2195 3514 c-83 -24 -122 -27 -200 -15 -63 10 -84 10 -135 -3 -188
-48 -398 -195 -524 -365 -51 -70 -131 -229 -174 -346 -73 -198 -98 -363 -113
-735 -11 -291 -7 -446 17 -625 15 -113 52 -285 60 -285 3 0 22 13 42 29 49 39
136 71 193 71 77 0 175 -64 359 -237 48 -44 66 -54 130 -70 63 -16 75 -23 80
-43 4 -18 20 -30 65 -47 75 -29 88 -29 120 3 25 25 29 26 113 20 131 -10 225
5 311 48 40 20 80 36 90 36 10 0 35 16 55 35 29 27 46 35 74 35 29 0 49 10 92
45 30 25 105 80 167 121 111 75 112 76 128 132 123 422 109 972 -35 1403 -93
281 -262 516 -469 654 -183 121 -340 171 -446 139z m-290 -954 c8 -69 15 -128
15 -131 0 -3 11 -18 25 -33 34 -36 32 -46 -7 -35 -18 5 -51 9 -72 9 -31 0 -37
3 -28 12 8 8 12 61 12 174 0 98 4 165 10 169 6 3 11 21 11 38 2 38 11 -21 34
-203z m161 -55 c8 -69 18 -95 39 -95 8 0 15 -9 15 -20 0 -19 7 -20 130 -20
128 0 131 -1 153 -25 27 -32 41 -33 141 -10 61 13 99 16 167 11 82 -6 89 -5
99 14 15 28 44 25 95 -10 42 -29 44 -32 51 -97 4 -38 7 -136 7 -220 -2 -165
-14 -230 -71 -370 -64 -157 -184 -307 -358 -446 -68 -54 -74 -57 -165 -72
-145 -23 -271 -20 -342 9 -144 59 -302 178 -399 298 -25 32 -78 115 -116 186
-55 99 -80 158 -112 267 -23 77 -42 146 -43 153 0 6 -4 12 -8 12 -8 0 -4 71 7
115 11 44 46 68 182 126 17 8 32 21 33 29 0 10 2 11 6 2 2 -6 9 -10 14 -6 5 3
9 0 9 -5 0 -6 -4 -11 -8 -11 -5 0 -18 -10 -31 -21 -39 -36 -13 -43 91 -24 69
13 118 16 189 11 101 -7 115 -2 132 47 4 9 13 17 21 17 23 0 37 57 43 170 7
112 16 107 29 -15z"/>
<path d="M2495 2181 c-47 -22 -89 -64 -105 -105 -14 -39 -6 -44 10 -6 14 34
64 80 86 80 9 0 14 -11 14 -35 0 -77 57 -137 126 -134 26 2 40 7 38 14 -6 15
42 59 55 50 6 -3 8 -11 5 -17 -4 -7 -2 -8 4 -4 6 4 17 25 23 47 l12 40 29 -28
c21 -20 28 -23 28 -11 0 27 -48 75 -102 102 -65 32 -162 35 -223 7z m103 -28
c-2 -12 -12 -18 -28 -18 -16 0 -26 6 -28 18 -3 13 3 17 28 17 25 0 31 -4 28
-17z"/>
<path d="M1748 2135 c-51 -19 -118 -66 -156 -110 -51 -57 -37 -60 34 -5 36 27
69 50 75 50 5 0 9 -16 9 -36 0 -29 8 -44 39 -75 34 -35 44 -39 87 -39 27 0 56
5 64 11 13 9 13 10 -2 6 -28 -9 -26 16 3 40 35 30 42 29 36 -4 -5 -26 -4 -27
9 -8 8 11 20 37 26 58 11 36 13 37 25 21 11 -15 13 -16 13 -2 0 25 -49 77 -87
93 -44 18 -126 18 -175 0z m60 -42 c-4 -21 -27 -27 -48 -13 -13 9 -13 11 0 20
25 16 52 12 48 -7z"/>
<path d="M2130 1620 c6 -11 23 -22 38 -26 15 -3 35 -8 44 -10 26 -7 95 16 115
39 17 20 17 20 -2 12 -34 -14 -166 -18 -178 -6 -18 18 -29 13 -17 -9z"/>
<path d="M2530 1559 c-25 -16 -81 -41 -125 -55 -124 -41 -344 -44 -462 -8 -10
3 -7 -2 7 -10 93 -58 286 -78 405 -41 61 18 175 86 209 124 25 27 20 26 -34
-10z"/>
<path d="M2415 1434 c-27 -18 -43 -34 -34 -34 15 0 99 55 99 65 0 11 -17 3
-65 -31z"/>
<path d="M2056 1396 c11 -8 38 -17 60 -20 l39 -6 -42 13 c-23 6 -45 15 -49 20
-4 4 -12 7 -18 7 -6 0 -1 -6 10 -14z"/>
<path d="M3635 873 c31 -70 35 -74 35 -37 0 31 -33 94 -50 94 -5 0 2 -26 15
-57z"/>
<path d="M956 878 c-17 -24 -22 -68 -8 -68 4 0 14 17 22 38 8 20 16 40 18 45
8 17 -18 5 -32 -15z"/>
<path d="M1195 840 c10 -14 38 -41 62 -60 82 -65 86 -69 80 -90 -4 -15 0 -20
14 -20 10 0 19 4 19 9 0 4 12 6 27 3 25 -5 24 -6 -21 -29 -26 -13 -44 -28 -41
-33 3 -5 2 -11 -3 -14 -4 -2 -9 -23 -10 -45 -4 -57 -29 -148 -50 -177 -18 -25
-83 -49 -113 -41 -11 3 -22 1 -25 -4 -5 -9 -44 -4 -79 11 -93 40 -119 50 -122
46 -2 -2 20 -13 49 -25 29 -12 62 -27 73 -33 11 -6 63 -10 126 -9 95 1 107 0
111 -17 6 -23 -17 -216 -31 -262 -6 -19 -11 -38 -11 -42 0 -5 58 -8 129 -8
l128 0 -4 24 c-3 14 5 54 17 90 47 144 72 370 50 461 -9 37 -14 24 -30 -75
-14 -87 -52 -204 -89 -275 -14 -27 -28 -59 -32 -70 -3 -11 -8 45 -11 125 -5
107 -3 151 6 170 7 14 18 48 25 75 28 122 34 135 56 129 11 -3 29 -11 40 -18
11 -7 29 -10 39 -8 12 3 -30 26 -111 61 -127 57 -200 99 -257 150 l-29 26 18
-25z m192 -482 c-3 -8 -6 -5 -6 6 -1 11 2 17 5 13 3 -3 4 -12 1 -19z m10 -115
c-3 -10 -5 -4 -5 12 0 17 2 24 5 18 2 -7 2 -21 0 -30z m0 -85 c-3 -7 -5 -2 -5
12 0 14 2 19 5 13 2 -7 2 -19 0 -25z"/>
<path d="M877 788 c-36 -62 -71 -135 -59 -123 13 14 95 165 89 165 -3 0 -16
-19 -30 -42z"/>
<path d="M3369 813 c-13 -16 -12 -17 4 -4 9 7 17 15 17 17 0 8 -8 3 -21 -13z"/>
<path d="M3762 730 c29 -58 54 -102 56 -98 4 8 -72 156 -94 184 -8 11 9 -28
38 -86z"/>
<path d="M3270 762 c-41 -21 -121 -54 -177 -72 -108 -36 -134 -53 -38 -26 57
17 75 15 75 -8 0 -8 12 -54 26 -102 24 -78 27 -110 30 -254 1 -91 9 -194 16
-230 l14 -65 87 -3 c48 -1 87 -1 87 1 0 2 -9 30 -20 62 -26 75 -55 254 -44
265 5 4 50 4 101 -1 79 -7 98 -6 146 11 94 33 172 82 217 135 17 20 9 16 -22
-12 -77 -69 -243 -142 -279 -123 -10 6 -30 10 -46 10 -62 0 -94 49 -123 185
l-16 80 -67 34 c-37 18 -64 37 -61 42 3 5 23 0 44 -11 55 -28 63 -26 57 13 -5
28 0 37 36 69 23 21 40 37 37 38 -3 0 -39 -17 -80 -38z"/>
<path d="M789 608 c-7 -23 -16 -47 -20 -52 -9 -10 -1 -20 65 -90 l49 -51 -46
52 c-50 55 -59 91 -37 149 6 15 8 29 6 31 -3 3 -10 -15 -17 -39z"/>
<path d="M2948 643 c7 -3 16 -2 19 1 4 3 -2 6 -13 5 -11 0 -14 -3 -6 -6z"/>
<path d="M1608 623 c7 -3 16 -2 19 1 4 3 -2 6 -13 5 -11 0 -14 -3 -6 -6z"/>
<path d="M2868 623 c7 -3 16 -2 19 1 4 3 -2 6 -13 5 -11 0 -14 -3 -6 -6z"/>
<path d="M2831 604 c0 -11 3 -14 6 -6 3 7 2 16 -1 19 -3 4 -6 -2 -5 -13z"/>
<path d="M3820 593 c0 -11 7 -20 15 -20 12 0 12 3 3 16 -7 9 -14 18 -15 20 -2
2 -3 -5 -3 -16z"/>
<path d="M2218 583 c7 -3 16 -2 19 1 4 3 -2 6 -13 5 -11 0 -14 -3 -6 -6z"/>
<path d="M2470 578 c0 -7 -36 -9 -102 -6 -57 3 -80 2 -53 -1 53 -7 48 -16 -19
-31 -24 -6 -26 -8 -8 -9 12 -1 39 6 59 14 19 8 54 15 77 16 22 1 52 4 66 8 25
7 25 7 3 13 -13 3 -23 2 -23 -4z"/>
<path d="M2553 573 c9 -2 25 -2 35 0 9 3 1 5 -18 5 -19 0 -27 -2 -17 -5z"/>
<path d="M2827 564 c-23 -24 6 -228 53 -374 30 -91 33 -126 13 -176 -4 -12 18
-14 136 -14 l141 0 -65 82 c-36 45 -65 87 -65 93 0 6 -18 31 -40 55 -38 43
-137 245 -147 300 -5 29 -16 43 -26 34z"/>
<path d="M1033 553 c9 -2 25 -2 35 0 9 3 1 5 -18 5 -19 0 -27 -2 -17 -5z"/>
<path d="M1137 513 c14 -26 16 -36 7 -50 -17 -26 -86 -22 -127 7 l-32 23 26
-28 c36 -37 108 -46 137 -17 24 24 20 52 -10 79 -20 18 -20 18 -1 -14z"/>
<path d="M2068 522 c-10 -2 -18 -7 -18 -10 0 -8 79 -7 86 1 7 6 -47 13 -68 9z"/>
<path d="M2198 523 c7 -3 16 -2 19 1 4 3 -2 6 -13 5 -11 0 -14 -3 -6 -6z"/>
<path d="M1983 513 c9 -2 23 -2 30 0 6 3 -1 5 -18 5 -16 0 -22 -2 -12 -5z"/>
<path d="M3474 495 c-14 -22 -15 -30 -4 -50 7 -13 21 -26 32 -28 23 -7 72 7
105 28 37 25 22 28 -22 5 -72 -37 -117 -18 -97 40 13 37 8 38 -14 5z"/>
<path d="M2195 500 c-3 -6 1 -7 9 -4 18 7 21 14 7 14 -6 0 -13 -4 -16 -10z"/>
<path d="M3631 494 c0 -11 3 -14 6 -6 3 7 2 16 -1 19 -3 4 -6 -2 -5 -13z"/>
<path d="M2266 415 c-3 -8 -17 -21 -32 -27 -23 -11 -28 -10 -45 11 -11 13 -19
19 -19 13 0 -19 31 -42 55 -42 26 0 55 24 55 46 0 18 -6 18 -14 -1z"/>
<path d="M890 416 c0 -2 7 -7 16 -10 8 -3 12 -2 9 4 -6 10 -25 14 -25 6z"/>
<path d="M642 307 c-30 -82 -92 -287 -92 -303 0 -29 23 29 54 141 21 72 46
154 57 184 11 30 18 56 15 58 -2 2 -17 -34 -34 -80z"/>
<path d="M3954 357 c3 -10 13 -46 21 -80 32 -126 78 -277 85 -277 9 0 -87 338
-102 360 -8 12 -9 12 -4 -3z"/>
</g>
</svg>
